<?xml version="1.0" encoding="utf-8"?>
<!-- Generator: Adobe Illustrator 15.0.0, SVG Export Plug-In . SVG Version: 6.00 Build 0)  -->
<!DOCTYPE svg PUBLIC "-//W3C//DTD SVG 1.1//EN" "http://www.w3.org/Graphics/SVG/1.1/DTD/svg11.dtd">
<svg version="1.1" id="Layer_1" xmlns="http://www.w3.org/2000/svg" xmlns:xlink="http://www.w3.org/1999/xlink" x="0px" y="0px"
	 width="65.633px" height="38.6px" viewBox="113.7 230.7 65.633 38.6" enable-background="new 113.7 230.7 65.633 38.6"
	 xml:space="preserve">
<path fill="#010202" d="M166.7,261.9l-4.9-4.9l-4.1-4.1l0,0l-5.4,5.399l1.5,1.5l2.6,2.601c-3,1.399-6.4,1.5-9.4,0.199
	c-1.3-0.6-2.6-1.3-3.6-2.399c-1.5-1.5-2.5-3.3-3-5.3c-0.6-2.301-0.5-4.8,0.4-7.101l4.4,1.2l4.5,1.2l-1.2-4.5l-1.2-4.4
	c4-1.6,8.6-0.8,11.9,2.2l5-5c5.2,2.8,9.4,6.5,12,9.2c-3.9-5.8-13.1-17-25.7-17c-17,0-36.8,19.3-36.8,19.3s19.8,19.3,36.8,19.3
	c12.4,0,21.4-9.7,25.5-15C173.8,256.6,170.6,259.4,166.7,261.9z M134.4,260.8c0.3,0.601,0.7,1.3,1.1,1.9
	c-8.2-4.8-13.7-11.7-13.7-11.7s7.6-9.5,18.2-13.9l1.3,4.9l-5.2-1.4c-1.8,2.3-2.9,5-3.5,7.7C131.8,252.5,132.4,256.9,134.4,260.8z"/>
</svg>
