<?xml version="1.0" standalone="no"?>
<!DOCTYPE svg PUBLIC "-//W3C//DTD SVG 20010904//EN"
 "http://www.w3.org/TR/2001/REC-SVG-20010904/DTD/svg10.dtd">
<svg version="1.0" xmlns="http://www.w3.org/2000/svg"
 width="512.000000pt" height="512.000000pt" viewBox="0 0 512.000000 512.000000"
 preserveAspectRatio="xMidYMid meet">
<metadata>
Created by potrace 1.11, written by Peter Selinger 2001-2013
</metadata>
<g transform="translate(0.000000,512.000000) scale(0.100000,-0.100000)"
fill="#000000" stroke="none">
<path d="M0 4274 c0 -827 0 -846 19 -833 10 8 92 70 182 138 323 246 675 463
1004 621 224 108 245 116 254 102 10 -17 174 -633 169 -638 -3 -2 -157 36
-342 86 -186 49 -344 90 -351 90 -16 0 -112 -140 -193 -280 -154 -268 -255
-566 -309 -905 -22 -139 -25 -533 -5 -675 51 -357 169 -701 339 -982 39 -65
69 -118 67 -118 -8 0 -215 130 -332 209 -122 81 -372 265 -454 333 l-48 40 0
-731 0 -731 2560 0 2560 0 0 506 0 505 -30 -18 -30 -18 -608 607 -607 606
-370 -364 -370 -364 279 -279 278 -279 -80 -31 c-213 -82 -343 -106 -577 -106
-205 0 -314 16 -485 71 -542 176 -921 598 -1040 1159 -30 144 -38 385 -16 532
15 99 65 297 84 329 5 8 189 -38 597 -147 325 -87 593 -157 596 -156 3 1 -65
265 -152 587 -87 322 -158 588 -159 591 -1 18 211 78 347 98 118 18 355 14
485 -8 230 -40 474 -144 652 -279 49 -37 98 -73 108 -81 22 -16 8 -28 469 427
l225 223 109 -62 c60 -34 148 -86 196 -115 48 -30 90 -54 93 -54 3 0 6 279 6
620 l0 620 -2560 0 -2560 0 0 -846z"/>
</g>
</svg>
