<?xml version="1.0" encoding="utf-8"?>
<!-- Generator: Adobe Illustrator 15.0.0, SVG Export Plug-In . SVG Version: 6.00 Build 0)  -->
<!DOCTYPE svg PUBLIC "-//W3C//DTD SVG 1.1//EN" "http://www.w3.org/Graphics/SVG/1.1/DTD/svg11.dtd">
<svg version="1.1" id="Layer_1" xmlns="http://www.w3.org/2000/svg" xmlns:xlink="http://www.w3.org/1999/xlink" x="0px" y="0px"
	 width="141.73px" height="141.73px" viewBox="0 0 141.73 141.73" enable-background="new 0 0 141.73 141.73" xml:space="preserve">
<path d="M61.184,83.9c-8.2-4.801-13.7-11.7-13.7-11.7s7.601-9.5,18.2-13.9c0,0,6.418-2.343,11.367-2.343s12.833,3.742,12.833,3.742
	c5.2,2.8,9.399,6.5,12,9.2c-3.9-5.801-13.101-17-25.7-17c-17,0-36.8,19.3-36.8,19.3s19.8,19.3,36.8,19.3c12.4,0,21.4-9.7,25.5-15
	c-2.2,2.301-9.038,7.601-9.038,7.601s-3.583,4.42-14.958,4.42S61.184,83.9,61.184,83.9z"/>
<path fill="#030303" d="M78.991,54.224c-1.854-0.182-3.731-0.104-5.567,0.257c-2.738,0.535-5.37,1.693-7.705,3.44l1.387,5.227
	l-5.22-1.41c-1.759,2.328-2.932,4.962-3.483,7.699c-0.84,4.193-0.264,8.607,1.725,12.486c0.88,1.72,2.031,3.332,3.464,4.774
	c6.518,6.546,16.604,7.381,24.03,2.488c1.058-0.694,2.057-1.503,2.991-2.434c0.926-0.924,1.738-1.925,2.441-2.975l-5.596-5.617
	l-4.088-4.108l0,0l-5.433,5.407l1.491,1.498l2.601,2.611c-2.968,1.401-6.402,1.432-9.408,0.15c-1.308-0.562-2.547-1.345-3.617-2.414
	c-1.501-1.512-2.469-3.338-2.955-5.261c-0.589-2.326-0.465-4.801,0.426-7.055l4.345,1.175l4.476,1.209l-1.191-4.479l-1.149-4.347
	c3.955-1.544,8.599-0.804,11.898,2.222l5.416-5.393C87.078,56.339,83.086,54.626,78.991,54.224z"/>
</svg>
