<?xml version="1.0" encoding="utf-8"?>
<!-- Generator: Adobe Illustrator 15.0.0, SVG Export Plug-In . SVG Version: 6.00 Build 0)  -->
<!DOCTYPE svg PUBLIC "-//W3C//DTD SVG 1.1//EN" "http://www.w3.org/Graphics/SVG/1.1/DTD/svg11.dtd">
<svg version="1.1" id="Layer_1" xmlns="http://www.w3.org/2000/svg" xmlns:xlink="http://www.w3.org/1999/xlink" x="0px" y="0px"
	 width="65.633px" height="38.6px" viewBox="113.7 230.7 65.633 38.6" enable-background="new 113.7 230.7 65.633 38.6"
	 xml:space="preserve">
<g>
	<path d="M134.583,260.769c-2.005-3.891-2.591-8.316-1.757-12.525c0.547-2.749,1.714-5.392,3.475-7.732l5.241,1.404L140.226,237
		C129.559,241.43,122,250.94,122,250.94s5.479,6.898,13.69,11.684C135.288,262.021,134.91,261.403,134.583,260.769z"/>
	<path d="M164.328,238.521l-4.978,4.98c-3.317-3.025-7.978-3.758-11.945-2.2l1.168,4.355l1.204,4.495l-4.494-1.206l-4.36-1.168
		c-0.89,2.263-1.008,4.743-0.412,7.079c0.492,1.928,1.467,3.758,2.977,5.268c1.073,1.074,2.317,1.857,3.633,2.416
		c3.018,1.281,6.461,1.242,9.434-0.174l-2.61-2.611l-1.499-1.498l5.434-5.438h0.001l4.111,4.111l4.92,4.922
		c7.5-4.721,12.42-10.912,12.42-10.912S173.266,243.297,164.328,238.521z"/>
</g>
</svg>
